<?xml version="1.0" encoding="UTF-8"?>
<svg width="77px" height="39px" viewBox="0 0 77 39" version="1.1" xmlns="http://www.w3.org/2000/svg" xmlns:xlink="http://www.w3.org/1999/xlink">
    <!-- Generator: Sketch 54.1 (76490) - https://sketchapp.com -->
    <title>abc</title>
    <desc>Created with Sketch.</desc>
    <g id="Page-1" stroke="none" stroke-width="1" fill="none" fill-rule="evenodd">
        <g id="Marquee-Test" transform="translate(-129.000000, -18.000000)" fill="#FFFFFF" fill-rule="nonzero">
            <path d="M130.496,37.384 C130.600001,35.650658 131.03333,34.2120057 131.796,33.068 C132.55867,31.9239943 133.529327,31.0053368 134.708,30.312 C135.886673,29.6186632 137.212659,29.1246681 138.686,28.83 C140.159341,28.5353319 141.641326,28.388 143.132,28.388 C144.484007,28.388 145.853326,28.4833324 147.24,28.674 C148.626674,28.8646676 149.891994,29.2373306 151.036,29.792 C152.180006,30.3466694 153.115996,31.1179951 153.844,32.106 C154.572004,33.0940049 154.936,34.4026585 154.936,36.032 L154.936,50.02 C154.936,51.2333394 155.005333,52.3946611 155.144,53.504 C155.282667,54.6133389 155.525332,55.4453306 155.872,56 L148.384,56 C148.245333,55.5839979 148.132667,55.1593355 148.046,54.726 C147.959333,54.2926645 147.898667,53.8506689 147.864,53.4 C146.685327,54.6133394 145.298675,55.4626642 143.704,55.948 C142.109325,56.4333358 140.480008,56.676 138.816,56.676 C137.533327,56.676 136.337339,56.5200016 135.228,56.208 C134.118661,55.8959984 133.148004,55.41067 132.316,54.752 C131.483996,54.09333 130.834002,53.2613384 130.366,52.256 C129.897998,51.2506616 129.664,50.0546736 129.664,48.668 C129.664,47.142659 129.932664,45.8860049 130.47,44.898 C131.007336,43.9099951 131.700662,43.1213363 132.55,42.532 C133.399338,41.9426637 134.369995,41.5006681 135.462,41.206 C136.554005,40.9113319 137.654661,40.6773342 138.764,40.504 C139.873339,40.3306658 140.965328,40.1920005 142.04,40.088 C143.114672,39.9839995 144.067996,39.828001 144.9,39.62 C145.732004,39.411999 146.390664,39.1086687 146.876,38.71 C147.361336,38.3113313 147.586667,37.7306705 147.552,36.968 C147.552,36.1706627 147.422001,35.5380023 147.162,35.07 C146.901999,34.6019977 146.555336,34.2380013 146.122,33.978 C145.688665,33.7179987 145.186003,33.5446671 144.614,33.458 C144.041997,33.3713329 143.42667,33.328 142.768,33.328 C141.311993,33.328 140.168004,33.6399969 139.336,34.264 C138.503996,34.8880031 138.018667,35.9279927 137.88,37.384 L130.496,37.384 Z M147.552,42.844 C147.239998,43.1213347 146.850002,43.3379992 146.382,43.494 C145.913998,43.6500008 145.411336,43.7799995 144.874,43.884 C144.336664,43.9880005 143.773336,44.0746663 143.184,44.144 C142.594664,44.2133337 142.005336,44.2999995 141.416,44.404 C140.861331,44.5080005 140.315336,44.6466658 139.778,44.82 C139.240664,44.9933342 138.772669,45.2273319 138.374,45.522 C137.975331,45.8166681 137.654668,46.1893311 137.412,46.64 C137.169332,47.0906689 137.048,47.6626632 137.048,48.356 C137.048,49.01467 137.169332,49.5693311 137.412,50.02 C137.654668,50.4706689 137.983998,50.8259987 138.4,51.086 C138.816002,51.3460013 139.301331,51.5279995 139.856,51.632 C140.410669,51.7360005 140.982664,51.788 141.572,51.788 C143.028007,51.788 144.154663,51.5453358 144.952,51.06 C145.749337,50.5746642 146.338665,49.9940034 146.72,49.318 C147.101335,48.6419966 147.335333,47.9573368 147.422,47.264 C147.508667,46.5706632 147.552,46.0160021 147.552,45.6 L147.552,42.844 Z M173.964,42.584 C173.964,41.4399943 173.842668,40.3480052 173.6,39.308 C173.357332,38.2679948 172.976003,37.3493373 172.456,36.552 C171.935997,35.7546627 171.286004,35.1220023 170.506,34.654 C169.725996,34.1859977 168.781339,33.952 167.672,33.952 C166.597328,33.952 165.661337,34.1859977 164.864,34.654 C164.066663,35.1220023 163.408003,35.7546627 162.888,36.552 C162.367997,37.3493373 161.986668,38.2679948 161.744,39.308 C161.501332,40.3480052 161.38,41.4399943 161.38,42.584 C161.38,43.6933389 161.501332,44.7679948 161.744,45.808 C161.986668,46.8480052 162.367997,47.7666627 162.888,48.564 C163.408003,49.3613373 164.066663,49.9939977 164.864,50.462 C165.661337,50.9300023 166.597328,51.164 167.672,51.164 C168.781339,51.164 169.725996,50.9300023 170.506,50.462 C171.286004,49.9939977 171.935997,49.3613373 172.456,48.564 C172.976003,47.7666627 173.357332,46.8480052 173.6,45.808 C173.842668,44.7679948 173.964,43.6933389 173.964,42.584 Z M154.256,18.872 L161.64,18.872 L161.64,32.392 L161.744,32.392 C162.645338,31.0053264 163.867326,29.9913365 165.41,29.35 C166.952674,28.7086635 168.555992,28.388 170.22,28.388 C171.572007,28.388 172.90666,28.6653306 174.224,29.22 C175.54134,29.7746694 176.728661,30.6239943 177.786,31.768 C178.843339,32.9120057 179.70133,34.3766577 180.36,36.162 C181.01867,37.9473423 181.348,40.0706544 181.348,42.532 C181.348,44.9933456 181.01867,47.1166577 180.36,48.902 C179.70133,50.6873423 178.843339,52.1519943 177.786,53.296 C176.728661,54.4400057 175.54134,55.2893306 174.224,55.844 C172.90666,56.3986694 171.572007,56.676 170.22,56.676 C168.24399,56.676 166.476008,56.3640031 164.916,55.74 C163.355992,55.1159969 162.177337,54.0586741 161.38,52.568 L161.276,52.568 L161.276,56 L154.256,56 L154.256,18.872 Z M197.932,38.58 C197.446664,35.4946512 195.626682,33.952 192.472,33.952 C191.293327,33.952 190.305337,34.220664 189.508,34.758 C188.710662,35.295336 188.060669,35.9886624 187.558,36.838 C187.055331,37.6873376 186.700001,38.6233282 186.492,39.646 C186.283999,40.6686718 186.18,41.6826616 186.18,42.688 C186.18,43.6586715 186.283999,44.6466616 186.492,45.652 C186.700001,46.6573384 187.037997,47.5673293 187.506,48.382 C187.974002,49.1966707 188.606662,49.8639974 189.404,50.384 C190.201337,50.9040026 191.171994,51.164 192.316,51.164 C194.084009,51.164 195.444662,50.6700049 196.398,49.682 C197.351338,48.6939951 197.949332,47.3680083 198.192,45.704 L205.316,45.704 C204.830664,49.2746845 203.444011,51.9959906 201.156,53.868 C198.867988,55.7400094 195.938684,56.676 192.368,56.676 C190.357323,56.676 188.511342,56.3380034 186.83,55.662 C185.148658,54.9859966 183.718672,54.0413394 182.54,52.828 C181.361327,51.6146606 180.44267,50.1673417 179.784,48.486 C179.12533,46.8046583 178.796,44.9586767 178.796,42.948 C178.796,40.8679896 179.09933,38.9353423 179.706,37.15 C180.31267,35.3646577 181.205327,33.8220065 182.384,32.522 C183.562672,31.2219935 185.001325,30.2080036 186.7,29.48 C188.398675,28.7519964 190.339989,28.388 192.524,28.388 C194.118674,28.388 195.652659,28.5959979 197.126,29.012 C198.599341,29.4280021 199.916661,30.0606624 201.078,30.91 C202.239339,31.7593376 203.183996,32.8166603 203.912,34.082 C204.640003,35.3473397 205.055999,36.846658 205.16,38.58 L197.932,38.58 Z" id="abc"></path>
        </g>
    </g>
</svg>